<?xml version="1.0" encoding="UTF-8" standalone="no"?>
<!DOCTYPE svg PUBLIC "-//W3C//DTD SVG 1.1//EN" "http://www.w3.org/Graphics/SVG/1.1/DTD/svg11.dtd">
<svg width="100%" height="100%" viewBox="0 0 500 500" version="1.1" xmlns="http://www.w3.org/2000/svg" xmlns:xlink="http://www.w3.org/1999/xlink" xml:space="preserve" xmlns:serif="http://www.serif.com/" style="fill-rule:evenodd;clip-rule:evenodd;">
    <g>
        <path d="M344.703,142.427L220.307,214.156L220.307,357.62L344.703,429.349L469.099,357.62L469.099,214.156L344.703,142.427ZM344.703,156.771L456.656,221.328L456.656,350.448L344.703,415.01L232.745,350.448L232.745,221.328L344.703,156.771ZM341.568,171.813L248.271,226.172L254.542,236.896L347.839,182.542L341.568,171.813ZM431.781,231.531L431.781,340.245L444.219,340.245L444.219,231.531L431.781,231.531ZM254.542,334.88L248.271,345.609L341.568,399.964L347.839,389.24L254.542,334.88Z" style="fill:rgb(5,171,196);fill-rule:nonzero;"/>
    </g>
    <g transform="matrix(1,0,0,1,25.0012,129.711)">
        <g>
            <g>
                <path d="M41.448,-29.292C42.109,-28.51 42.766,-27.854 43.427,-27.312C44.682,-26.234 45.823,-25.635 47.438,-25.635C50.375,-25.635 52.771,-28.151 55.943,-31.984L64.031,-42.286L64.031,-10.542C64.031,-6.292 65.766,-3.354 68.161,-1.5C70.5,0.422 73.375,1.198 75.531,1.198C78.823,1.198 81.698,-0.12 83.854,-2.276C85.953,-4.375 87.208,-7.25 87.208,-10.542L87.208,-59.359C87.208,-60.135 87.208,-61.156 87.271,-62.354C87.328,-63.552 87.271,-64.807 87.151,-66.187C86.849,-68.823 86.193,-71.635 84.396,-73.792C82.599,-75.891 79.661,-77.328 75.109,-77.328C71.818,-77.328 69.781,-76.906 68.344,-76.25C66.906,-75.531 66.188,-74.573 65.526,-73.552L64.328,-71.698C63.729,-70.74 62.771,-69.422 61.396,-67.745C58.641,-64.328 54.208,-59.177 47.078,-51.932L27.672,-73.312C25.755,-75.292 24.26,-76.307 22.224,-76.849C20.188,-77.328 17.552,-77.328 13.536,-77.328C10.484,-77.328 8.688,-76.849 7.609,-76.01C6.531,-75.172 6.109,-73.911 6.109,-72.474C6.109,-71.156 6.292,-69.839 6.651,-68.583C7.01,-67.323 7.188,-66.005 7.188,-64.75C7.307,-55.703 7.37,-46.719 7.307,-37.734C7.25,-28.693 7.188,-19.646 7.188,-10.542C7.188,-7.25 8.448,-4.375 10.542,-2.276C12.641,-0.12 15.516,1.198 18.87,1.198C22.224,1.198 25.099,-0.12 27.193,-2.276C29.292,-4.375 30.547,-7.25 30.547,-10.542L30.547,-16.953C30.49,-18.99 30.49,-21.203 30.49,-23.542L30.49,-31.568C30.427,-34.562 30.427,-38.156 30.427,-42.286L38.932,-31.984L41.448,-29.292Z" style="fill:rgb(5,171,196);fill-rule:nonzero;"/>
            </g>
        </g>
    </g>
    <g transform="matrix(1,0,0,1,118.12,129.711)">
        <g>
            <g>
                <path d="M70.74,-49.115C70.74,-57.26 67.083,-64.51 61.396,-69.781C55.646,-74.99 47.917,-78.167 39.771,-78.167L14.854,-78.167C11.802,-78.167 10.005,-77.687 8.927,-76.849C7.849,-76.01 7.427,-74.75 7.427,-73.312C7.427,-72.177 7.609,-70.917 7.906,-69.599C8.208,-68.224 8.448,-66.906 8.505,-65.589L8.505,-10.542C8.505,-7.25 9.766,-4.312 11.859,-2.219C13.958,-0.062 16.833,1.198 20.188,1.198C23.479,1.198 26.354,-0.062 28.51,-2.219C30.609,-4.312 31.865,-7.25 31.865,-10.542L31.865,-20.724L39.771,-20.724C45.224,-20.724 50.432,-22.104 55.047,-24.557C59.599,-26.953 63.49,-30.37 66.307,-34.62C69.12,-38.875 70.74,-43.786 70.74,-49.115ZM47.797,-48.396C47.797,-46.182 46.901,-44.203 45.464,-42.828C44.026,-41.391 41.99,-40.552 39.771,-40.552L31.385,-40.552L31.385,-57.38L39.771,-57.38C41.99,-57.38 44.026,-56.245 45.464,-54.568C46.901,-52.891 47.797,-50.615 47.797,-48.396Z" style="fill:rgb(5,171,196);fill-rule:nonzero;"/>
            </g>
        </g>
    </g>
    <g transform="matrix(-0.555197,-0.505948,0.505173,-0.554346,223.256,223.23)">
        <path d="M-0.002,12.667L135.799,12.668" style="fill:none;fill-rule:nonzero;stroke:rgb(5,171,196);stroke-width:25.33px;"/>
    </g>
</svg>
