<svg xmlns="http://www.w3.org/2000/svg" xmlns:xlink="http://www.w3.org/1999/xlink" width="500" zoomAndPan="magnify" viewBox="0 0 375 149.999998" height="200" preserveAspectRatio="xMidYMid meet" version="1.0"><defs><g/><clipPath id="e387b7a079"><path d="M 62.71875 50.34375 L 118.773438 50.34375 L 118.773438 115.097656 L 62.71875 115.097656 Z M 62.71875 50.34375 " clip-rule="nonzero"/></clipPath><clipPath id="a898a1be45"><path d="M 318.886719 20.863281 L 371.089844 20.863281 L 371.089844 62.675781 L 318.886719 62.675781 Z M 318.886719 20.863281 " clip-rule="nonzero"/></clipPath><clipPath id="e69ec8e4a3"><path d="M 316 47.160156 L 346.429688 47.160156 L 346.429688 72.074219 L 316 72.074219 Z M 316 47.160156 " clip-rule="nonzero"/></clipPath></defs><g clip-path="url(#e387b7a079)"><path fill="#05abc4" d="M 90.746094 50.351562 L 62.855469 66.535156 L 62.855469 98.90625 L 90.746094 115.089844 L 118.636719 98.90625 L 118.636719 66.535156 Z M 90.746094 53.585938 L 115.847656 68.152344 L 115.847656 97.285156 L 90.746094 111.851562 L 65.644531 97.285156 L 65.644531 68.152344 Z M 90.042969 56.980469 L 69.125 69.246094 L 70.53125 71.667969 L 91.449219 59.402344 Z M 110.269531 70.457031 L 110.269531 94.984375 L 113.058594 94.984375 L 113.058594 70.457031 Z M 70.53125 93.773438 L 69.125 96.195312 L 90.042969 108.457031 L 91.449219 106.039062 Z M 70.53125 93.773438 " fill-opacity="1" fill-rule="nonzero"/></g><g clip-path="url(#a898a1be45)"><path fill="#05abc4" d="M 365.757812 60.632812 C 362.9375 50.777344 356.941406 41.777344 348.003906 35.296875 C 339.96875 29.476562 330.746094 26.554688 321.535156 26.3125 C 320.035156 26.273438 318.847656 25.023438 318.890625 23.519531 C 318.929688 22.015625 320.175781 20.828125 321.675781 20.863281 C 331.9375 21.125 342.25 24.394531 351.191406 30.882812 C 361.140625 38.089844 367.851562 48.15625 370.984375 59.132812 L 370.984375 59.136719 C 371.398438 60.582031 370.5625 62.089844 369.117188 62.507812 C 368.28125 62.746094 367.429688 62.570312 366.777344 62.09375 C 366.300781 61.75 365.929688 61.25 365.757812 60.632812 " fill-opacity="1" fill-rule="nonzero"/></g><path fill="#05abc4" d="M 354.179688 64.660156 C 352.167969 57.097656 347.65625 50.179688 340.839844 45.234375 C 334.808594 40.863281 327.875 38.699219 320.964844 38.570312 C 319.464844 38.539062 318.269531 37.296875 318.296875 35.792969 C 318.324219 34.289062 319.5625 33.089844 321.0625 33.121094 C 329.042969 33.265625 337.074219 35.777344 344.027344 40.816406 C 351.886719 46.515625 357.117188 54.535156 359.433594 63.253906 C 359.824219 64.707031 358.957031 66.199219 357.507812 66.589844 C 356.6875 66.808594 355.851562 66.628906 355.214844 66.164062 C 354.722656 65.808594 354.347656 65.289062 354.179688 64.660156 " fill-opacity="1" fill-rule="nonzero"/><g clip-path="url(#e69ec8e4a3)"><path fill="#05abc4" d="M 340.964844 69.855469 C 340 64.714844 337.164062 59.949219 332.609375 56.644531 C 328.464844 53.644531 323.628906 52.378906 318.902344 52.683594 C 317.402344 52.789062 316.105469 51.648438 316.003906 50.148438 C 315.910156 48.648438 317.042969 47.347656 318.539062 47.246094 C 324.476562 46.851562 330.597656 48.457031 335.796875 52.226562 C 341.515625 56.371094 345.101562 62.402344 346.308594 68.84375 L 346.308594 68.847656 C 346.582031 70.324219 345.613281 71.75 344.136719 72.027344 C 343.371094 72.171875 342.625 71.980469 342.042969 71.558594 C 341.5 71.164062 341.097656 70.566406 340.964844 69.855469 " fill-opacity="1" fill-rule="nonzero"/></g><g fill="#004aad" fill-opacity="1"><g transform="translate(116.357368, 105.447428)"><g><path d="M 26.242188 -40.734375 C 20.109375 -40.734375 15.007812 -38.070312 11.976562 -33.636719 L 10.792969 -39.917969 L 6.285156 -39.917969 L 6.285156 0 L 12.566406 0 L 12.566406 -21.734375 C 12.566406 -29.199219 17.816406 -35.039062 24.691406 -35.039062 C 31.566406 -35.039062 35.410156 -30.457031 35.410156 -22.398438 L 35.410156 0 L 41.695312 0 L 41.695312 -23.878906 C 41.695312 -33.636719 35.78125 -40.734375 26.242188 -40.734375 Z M 26.242188 -40.734375 "/></g></g></g><g fill="#004aad" fill-opacity="1"><g transform="translate(163.814258, 105.447428)"><g><path d="M 26.242188 -40.734375 C 20.109375 -40.734375 15.007812 -38.070312 11.976562 -33.636719 L 10.792969 -39.917969 L 6.285156 -39.917969 L 6.285156 0 L 12.566406 0 L 12.566406 -21.734375 C 12.566406 -29.199219 17.816406 -35.039062 24.691406 -35.039062 C 31.566406 -35.039062 35.410156 -30.457031 35.410156 -22.398438 L 35.410156 0 L 41.695312 0 L 41.695312 -23.878906 C 41.695312 -33.636719 35.78125 -40.734375 26.242188 -40.734375 Z M 26.242188 -40.734375 "/></g></g></g><g fill="#004aad" fill-opacity="1"><g transform="translate(211.271148, 105.447428)"><g><path d="M 43.617188 -19.738281 C 43.617188 -31.417969 35.632812 -40.734375 23.507812 -40.734375 C 11.902344 -40.734375 3.179688 -31.789062 3.179688 -19.960938 C 3.179688 -8.058594 11.902344 0.886719 23.507812 0.886719 C 32.15625 0.886719 39.179688 -3.917969 42.582031 -12.125 L 35.929688 -12.125 C 33.488281 -7.835938 29.054688 -5.25 23.507812 -5.25 C 15.96875 -5.25 10.421875 -10.128906 9.460938 -17.519531 L 43.46875 -17.519531 C 43.542969 -18.257812 43.617188 -19 43.617188 -19.738281 Z M 23.507812 -34.820312 C 30.605469 -34.820312 36 -30.382812 37.332031 -23.285156 L 9.609375 -23.285156 C 10.867188 -30.234375 16.261719 -34.820312 23.507812 -34.820312 Z M 23.507812 -34.820312 "/></g></g></g><g fill="#004aad" fill-opacity="1"><g transform="translate(257.988832, 105.447428)"><g><path d="M 23.878906 0.886719 C 33.339844 0.886719 40.953125 -4.804688 43.394531 -13.601562 L 37.035156 -13.601562 C 34.597656 -8.28125 29.71875 -5.175781 23.878906 -5.175781 C 15.746094 -5.175781 9.535156 -11.605469 9.535156 -19.960938 C 9.535156 -28.238281 15.671875 -34.671875 23.878906 -34.671875 C 29.792969 -34.671875 34.746094 -31.566406 37.035156 -26.390625 L 43.320312 -26.390625 C 40.882812 -35.113281 33.414062 -40.734375 23.878906 -40.734375 C 12.050781 -40.734375 3.105469 -31.863281 3.105469 -19.960938 C 3.105469 -8.058594 12.050781 0.886719 23.878906 0.886719 Z M 23.878906 0.886719 "/></g></g></g><g fill="#004aad" fill-opacity="1"><g transform="translate(303.819468, 105.447428)"><g><path d="M 22.84375 -5.765625 C 17.371094 -5.765625 14.414062 -8.722656 14.414062 -14.121094 L 14.414062 -34.226562 L 26.984375 -34.226562 L 26.984375 -39.917969 L 14.414062 -39.917969 L 14.414062 -48.347656 L 13.453125 -48.347656 L 1.109375 -35.335938 L 1.109375 -34.226562 L 8.132812 -34.226562 L 8.132812 -13.898438 C 8.132812 -5.25 13.453125 0 22.03125 0 L 27.203125 0 L 27.203125 -5.765625 Z M 22.84375 -5.765625 "/></g></g></g><g fill="#004aad" fill-opacity="1"><g transform="translate(3.978426, 109.534965)"><g><path d="M 30.015625 0.8125 C 42.210938 0.8125 51.820312 -6.503906 54.777344 -18.1875 L 48.199219 -18.1875 C 45.464844 -10.277344 38.738281 -5.542969 30.015625 -5.542969 C 18.480469 -5.542969 10.128906 -13.898438 10.128906 -25.800781 C 10.128906 -37.703125 18.480469 -46.203125 30.015625 -46.203125 C 38.515625 -46.203125 45.167969 -41.695312 47.902344 -34.226562 L 54.558594 -34.226562 C 51.601562 -45.390625 41.988281 -52.488281 30.015625 -52.488281 C 14.636719 -52.488281 3.472656 -41.324219 3.472656 -25.800781 C 3.472656 -10.347656 14.636719 0.8125 30.015625 0.8125 Z M 30.015625 0.8125 "/></g></g></g><g fill="#05abc4" fill-opacity="1"><g transform="translate(18.750934, 47.480303)"><g><path d="M 9.359375 -6.613281 C 9.507812 -6.4375 9.65625 -6.289062 9.804688 -6.167969 C 10.089844 -5.925781 10.347656 -5.789062 10.710938 -5.789062 C 11.375 -5.789062 11.917969 -6.355469 12.632812 -7.222656 L 14.460938 -9.550781 L 14.460938 -2.378906 C 14.460938 -1.421875 14.851562 -0.757812 15.390625 -0.339844 C 15.917969 0.09375 16.570312 0.269531 17.054688 0.269531 C 17.800781 0.269531 18.449219 -0.0273438 18.9375 -0.515625 C 19.410156 -0.988281 19.695312 -1.636719 19.695312 -2.378906 L 19.695312 -13.402344 C 19.695312 -13.578125 19.695312 -13.808594 19.707031 -14.082031 C 19.71875 -14.351562 19.707031 -14.636719 19.679688 -14.945312 C 19.613281 -15.542969 19.464844 -16.175781 19.058594 -16.664062 C 18.652344 -17.136719 17.988281 -17.460938 16.960938 -17.460938 C 16.21875 -17.460938 15.757812 -17.367188 15.433594 -17.21875 C 15.109375 -17.054688 14.945312 -16.839844 14.796875 -16.609375 L 14.527344 -16.191406 C 14.390625 -15.972656 14.175781 -15.675781 13.863281 -15.296875 C 13.242188 -14.527344 12.242188 -13.363281 10.632812 -11.726562 L 6.25 -16.554688 C 5.816406 -17.003906 5.476562 -17.230469 5.019531 -17.355469 C 4.558594 -17.460938 3.964844 -17.460938 3.058594 -17.460938 C 2.367188 -17.460938 1.960938 -17.355469 1.71875 -17.164062 C 1.472656 -16.976562 1.378906 -16.691406 1.378906 -16.367188 C 1.378906 -16.070312 1.421875 -15.769531 1.5 -15.488281 C 1.582031 -15.203125 1.625 -14.90625 1.625 -14.621094 C 1.648438 -12.578125 1.664062 -10.550781 1.648438 -8.519531 C 1.636719 -6.480469 1.625 -4.4375 1.625 -2.378906 C 1.625 -1.636719 1.90625 -0.988281 2.378906 -0.515625 C 2.855469 -0.0273438 3.503906 0.269531 4.261719 0.269531 C 5.019531 0.269531 5.667969 -0.0273438 6.140625 -0.515625 C 6.613281 -0.988281 6.898438 -1.636719 6.898438 -2.378906 L 6.898438 -3.828125 C 6.882812 -4.289062 6.882812 -4.789062 6.882812 -5.316406 L 6.882812 -7.128906 C 6.871094 -7.804688 6.871094 -8.617188 6.871094 -9.550781 L 8.792969 -7.222656 Z M 9.359375 -6.613281 "/></g></g></g><g fill="#05abc4" fill-opacity="1"><g transform="translate(39.779208, 47.480303)"><g><path d="M 15.972656 -11.089844 C 15.972656 -12.929688 15.148438 -14.566406 13.863281 -15.757812 C 12.566406 -16.933594 10.820312 -17.652344 8.980469 -17.652344 L 3.355469 -17.652344 C 2.664062 -17.652344 2.257812 -17.542969 2.015625 -17.355469 C 1.773438 -17.164062 1.675781 -16.878906 1.675781 -16.554688 C 1.675781 -16.296875 1.71875 -16.015625 1.785156 -15.71875 C 1.851562 -15.40625 1.90625 -15.109375 1.921875 -14.8125 L 1.921875 -2.378906 C 1.921875 -1.636719 2.203125 -0.972656 2.679688 -0.5 C 3.152344 -0.0117188 3.800781 0.269531 4.558594 0.269531 C 5.300781 0.269531 5.953125 -0.0117188 6.4375 -0.5 C 6.910156 -0.972656 7.195312 -1.636719 7.195312 -2.378906 L 7.195312 -4.679688 L 8.980469 -4.679688 C 10.210938 -4.679688 11.390625 -4.992188 12.429688 -5.546875 C 13.457031 -6.085938 14.335938 -6.859375 14.972656 -7.816406 C 15.609375 -8.777344 15.972656 -9.886719 15.972656 -11.089844 Z M 10.792969 -10.929688 C 10.792969 -10.429688 10.589844 -9.980469 10.265625 -9.671875 C 9.941406 -9.347656 9.480469 -9.15625 8.980469 -9.15625 L 7.085938 -9.15625 L 7.085938 -12.957031 L 8.980469 -12.957031 C 9.480469 -12.957031 9.941406 -12.699219 10.265625 -12.320312 C 10.589844 -11.941406 10.792969 -11.429688 10.792969 -10.929688 Z M 10.792969 -10.929688 "/></g></g></g><path stroke-linecap="butt" transform="matrix(-0.720448, -0.656541, 0.650984, -0.71435, 63.339302, 68.79924)" fill="none" stroke-linejoin="miter" d="M 0.00259226 2.499923 L 23.797825 2.497904 " stroke="#05abc4" stroke-width="5" stroke-opacity="1" stroke-miterlimit="4"/></svg>